<svg width="236" height="40" viewBox="0 0 236 40" fill="none" xmlns="http://www.w3.org/2000/svg">
<g filter="url(#filter0_d)">
<path d="M36.9883 8.67188H41.3828V23.4375C41.3828 24.7949 41.0801 25.9961 40.4746 27.041C39.8789 28.0762 39.0342 28.877 37.9404 29.4434C36.8467 30.0098 35.6113 30.293 34.2344 30.293C31.9785 30.293 30.2207 29.7217 28.9609 28.5791C27.7012 27.4268 27.0713 25.8008 27.0713 23.7012H31.4951C31.4951 24.7461 31.7148 25.5176 32.1543 26.0156C32.5938 26.5137 33.2871 26.7627 34.2344 26.7627C35.0742 26.7627 35.7432 26.4746 36.2412 25.8984C36.7393 25.3223 36.9883 24.502 36.9883 23.4375V8.67188ZM53.21 21.9287C53.21 20.3564 53.5127 18.9551 54.1182 17.7246C54.7236 16.4941 55.5928 15.542 56.7256 14.8682C57.8682 14.1943 59.1914 13.8574 60.6953 13.8574C62.834 13.8574 64.5771 14.5117 65.9248 15.8203C67.2822 17.1289 68.0391 18.9062 68.1953 21.1523L68.2246 22.2363C68.2246 24.668 67.5459 26.6211 66.1885 28.0957C64.8311 29.5605 63.0098 30.293 60.7246 30.293C58.4395 30.293 56.6133 29.5605 55.2461 28.0957C53.8887 26.6309 53.21 24.6387 53.21 22.1191V21.9287ZM57.4434 22.2363C57.4434 23.7402 57.7266 24.8926 58.293 25.6934C58.8594 26.4844 59.6699 26.8799 60.7246 26.8799C61.75 26.8799 62.5508 26.4893 63.127 25.708C63.7031 24.917 63.9912 23.6572 63.9912 21.9287C63.9912 20.4541 63.7031 19.3115 63.127 18.501C62.5508 17.6904 61.7402 17.2852 60.6953 17.2852C59.6602 17.2852 58.8594 17.6904 58.293 18.501C57.7266 19.3018 57.4434 20.5469 57.4434 22.2363ZM83.9629 15.8789C85.0859 14.5312 86.4971 13.8574 88.1963 13.8574C91.6338 13.8574 93.377 15.8545 93.4258 19.8486V30H89.1924V19.9658C89.1924 19.0576 88.9971 18.3887 88.6064 17.959C88.2158 17.5195 87.5664 17.2998 86.6582 17.2998C85.418 17.2998 84.5195 17.7783 83.9629 18.7354V30H79.7295V7.5H83.9629V15.8789ZM109.516 14.1504L109.647 15.9814C110.78 14.5654 112.299 13.8574 114.203 13.8574C115.883 13.8574 117.133 14.3506 117.953 15.3369C118.773 16.3232 119.193 17.7979 119.213 19.7607V30H114.979V19.8633C114.979 18.9648 114.784 18.3154 114.394 17.915C114.003 17.5049 113.354 17.2998 112.445 17.2998C111.254 17.2998 110.36 17.8076 109.765 18.8232V30H105.531V14.1504H109.516Z" fill="#222222"/>
<path d="M131.714 30V8.67188H138.276C140.151 8.67188 141.826 9.09668 143.301 9.94629C144.785 10.7861 145.942 11.9873 146.772 13.5498C147.603 15.1025 148.018 16.8701 148.018 18.8525V19.834C148.018 21.8164 147.607 23.5791 146.787 25.1221C145.977 26.665 144.829 27.8613 143.345 28.7109C141.86 29.5605 140.186 29.9902 138.32 30H131.714ZM136.108 12.2314V26.4697H138.232C139.951 26.4697 141.265 25.9082 142.173 24.7852C143.081 23.6621 143.545 22.0557 143.564 19.9658V18.8379C143.564 16.6699 143.115 15.0293 142.217 13.916C141.318 12.793 140.005 12.2314 138.276 12.2314H136.108ZM159.288 21.9287C159.288 20.3564 159.591 18.9551 160.196 17.7246C160.802 16.4941 161.671 15.542 162.804 14.8682C163.946 14.1943 165.27 13.8574 166.773 13.8574C168.912 13.8574 170.655 14.5117 172.003 15.8203C173.36 17.1289 174.117 18.9062 174.273 21.1523L174.303 22.2363C174.303 24.668 173.624 26.6211 172.267 28.0957C170.909 29.5605 169.088 30.293 166.803 30.293C164.518 30.293 162.691 29.5605 161.324 28.0957C159.967 26.6309 159.288 24.6387 159.288 22.1191V21.9287ZM163.521 22.2363C163.521 23.7402 163.805 24.8926 164.371 25.6934C164.938 26.4844 165.748 26.8799 166.803 26.8799C167.828 26.8799 168.629 26.4893 169.205 25.708C169.781 24.917 170.069 23.6572 170.069 21.9287C170.069 20.4541 169.781 19.3115 169.205 18.501C168.629 17.6904 167.818 17.2852 166.773 17.2852C165.738 17.2852 164.938 17.6904 164.371 18.501C163.805 19.3018 163.521 20.5469 163.521 22.2363ZM193.205 30.293C190.881 30.293 188.986 29.5801 187.521 28.1543C186.066 26.7285 185.339 24.8291 185.339 22.4561V22.0459C185.339 20.4541 185.646 19.0332 186.262 17.7832C186.877 16.5234 187.746 15.5566 188.869 14.8828C190.002 14.1992 191.291 13.8574 192.736 13.8574C194.904 13.8574 196.608 14.541 197.849 15.9082C199.099 17.2754 199.724 19.2139 199.724 21.7236V23.4521H189.631C189.768 24.4873 190.178 25.3174 190.861 25.9424C191.555 26.5674 192.429 26.8799 193.483 26.8799C195.114 26.8799 196.389 26.2891 197.307 25.1074L199.387 27.4365C198.752 28.335 197.893 29.0381 196.809 29.5459C195.725 30.0439 194.523 30.293 193.205 30.293ZM192.722 17.2852C191.882 17.2852 191.198 17.5684 190.671 18.1348C190.153 18.7012 189.821 19.5117 189.675 20.5664H195.563V20.2295C195.544 19.292 195.29 18.5693 194.802 18.0615C194.313 17.5439 193.62 17.2852 192.722 17.2852Z" fill="#E9B949"/>
</g>
<defs>
<filter id="filter0_d" x="23.0713" y="7.5" width="180.652" height="30.793" filterUnits="userSpaceOnUse" color-interpolation-filters="sRGB">
<feFlood flood-opacity="0" result="BackgroundImageFix"/>
<feColorMatrix in="SourceAlpha" type="matrix" values="0 0 0 0 0 0 0 0 0 0 0 0 0 0 0 0 0 0 127 0"/>
<feOffset dy="4"/>
<feGaussianBlur stdDeviation="2"/>
<feColorMatrix type="matrix" values="0 0 0 0 0 0 0 0 0 0 0 0 0 0 0 0 0 0 0.25 0"/>
<feBlend mode="normal" in2="BackgroundImageFix" result="effect1_dropShadow"/>
<feBlend mode="normal" in="SourceGraphic" in2="effect1_dropShadow" result="shape"/>
</filter>
</defs>
</svg>
